# xmcd
#
# Track frame offsets: 
#        150
#        17260
#        37755
#        59676
#        85216
#        109284
#        127137
#        146278
#        167947
#        183091
#        209659
#
# Disc length: 3054 seconds
#
# Revision: 3
# Processed by: cddbd v1.5.2PL0 Copyright (c) Steve Scherf et al.
# Submitted via: ExactAudioCopy v1.0b3
#
DISCID=960bec0b
DTITLE=Baez, Joan - Gone From Danger [Disc 2]
DYEAR=2009
DGENRE=American Folk
TTITLE0=If I Wrote You
TTITLE1=No Mermaid
TTITLE2=Reunion Hill
TTITLE3=Crack In The Mirror
TTITLE4=Long Bed From Kenya
TTITLE5=February
TTITLE6=You're Aging Well
TTITLE7=Fishing
TTITLE8=Money From Floods
TTITLE9=Who Do You Think I Am
TTITLE10=To Ramona
EXTD=
EXTT0=
EXTT1=
EXTT2=
EXTT3=
EXTT4=
EXTT5=
EXTT6=
EXTT7=
EXTT8=
EXTT9=
EXTT10=
PLAYORDER=
